Coordinates
version=1
nRows=30
nColumns=30
inDegrees=yes

Units are S.I. units (second, meters, Newtons, ...)
Angles are in degrees.

endheader
time	floatyaw	floatroll	floatpitch	floatx	floaty	floatz	pro_sup_l	deviation_l	flexion_l	cmc_flexion_l	cmc_abduction_l	mp_flexion_l	ip_flexion_l	2mcp_flexion_l	2mcp_abduction_l	2pm_flexion_l	2md_flexion_l	3mcp_flexion_l	3mcp_abduction_l	3pm_flexion_l	3md_flexion_l	4mcp_flexion_l	4mcp_abduction_l	4pm_flexion_l	4md_flexion_l	5mcp_flexion_l	5mcp_abduction_l	5pm_flexion_l	5md_flexion_l
-0.495000	3.029614	-4.103828	101.268469	-0.074414	-0.189066	-0.028899	89.385899	4.049140	4.494627	16.957816	6.147581	-22.640587	-36.121010	36.282332	7.017452	52.041513	34.217365	25.569885	4.996275	51.489051	32.278275	17.202288	-4.447614	64.099169	41.082108	16.528892	-9.882599	59.602517	38.909942
-0.485000	3.029614	-4.103828	101.268469	-0.071370	-0.187156	-0.026857	90.016024	3.874085	5.337156	17.327442	6.506387	-22.588432	-36.248400	35.976088	6.922049	52.314846	34.337052	25.846761	5.035462	52.009473	32.630134	17.742676	-4.495667	64.439477	41.315298	17.701478	-9.934194	59.877579	38.957782
-0.475000	3.029614	-4.103828	101.268469	-0.068012	-0.184912	-0.024511	90.650360	3.707083	6.225471	17.897776	6.806012	-22.503396	-36.415389	35.604463	6.734660	52.541326	34.448819	26.273940	5.032723	52.183318	32.832011	18.400442	-4.544874	64.423729	41.422225	18.721612	-9.845659	60.187387	39.014582
-0.465000	3.029614	-4.103828	101.268469	-0.064272	-0.182345	-0.021829	91.303123	3.667747	7.084457	18.596941	7.070188	-22.409950	-36.610502	35.209168	6.492158	52.753367	34.569648	26.794427	4.988886	52.070841	32.902231	19.125222	-4.589700	64.136704	41.424255	19.578680	-9.631394	60.437108	39.031609
-0.455000	3.029614	-4.103828	101.268469	-0.060080	-0.179518	-0.018818	91.974022	3.873437	7.824354	19.314087	7.343977	-22.335541	-36.815462	34.808948	6.242399	52.994356	34.718917	27.322965	4.923638	51.850226	32.909094	19.847146	-4.624721	63.785106	41.388081	20.370163	-9.357460	60.537478	38.962012
-0.445000	3.029614	-4.103828	101.268469	-0.055379	-0.176511	-0.015528	92.641773	4.413585	8.351779	19.940053	7.700047	-22.297401	-37.008904	34.396754	6.023445	53.298327	34.909192	27.780492	4.867673	51.731395	32.940146	20.499673	-4.644148	63.605171	41.396583	21.244965	-9.115690	60.441449	38.782657
-0.435000	3.029614	-4.103828	101.268469	-0.050138	-0.173395	-0.012028	93.270881	5.322762	8.587386	20.410788	8.222994	-22.294478	-37.172626	33.955366	5.852258	53.672598	35.138372	28.124265	4.846833	51.858487	33.065248	21.043103	-4.643251	63.756544	41.512443	22.312548	-8.978690	60.166883	38.508842
-0.425000	3.029614	-4.103828	101.268469	-0.044369	-0.170207	-0.008377	93.826833	6.560063	8.486146	20.730935	8.974904	-22.308732	-37.298064	33.476422	5.725547	54.089129	35.386190	28.358297	4.868579	52.249849	33.309783	21.475423	-4.621443	64.253871	41.751721	23.570664	-8.961933	59.796441	38.194951
-0.415000	3.029614	-4.103828	101.268469	-0.038131	-0.166963	-0.004602	94.292482	8.008985	8.053722	20.965206	9.966332	-22.314633	-37.389732	32.967606	5.626857	54.488606	35.617506	28.520172	4.919636	52.797937	33.647099	21.823969	-4.584485	64.964283	42.078602	24.893068	-9.016886	59.450728	37.917590
-0.405000	3.029614	-4.103828	101.268469	-0.031517	-0.163675	-0.000693	94.680368	9.507737	7.352631	21.203220	11.156395	-22.291858	-37.463638	32.442995	5.533534	54.798583	35.793152	28.652800	4.975521	53.320188	34.010266	22.124038	-4.543114	65.665403	42.421519	26.083045	-9.059981	59.239357	37.744446
-0.395000	3.029614	-4.103828	101.268469	-0.024628	-0.160374	0.003380	95.037150	10.902684	6.493985	21.517086	12.482100	-22.235210	-37.541191	31.906428	5.422285	54.960142	35.884797	28.777355	5.015158	53.634059	34.317239	22.400423	-4.508318	66.133705	42.701513	26.962209	-9.019672	59.210645	37.702432
-0.385000	3.029614	-4.103828	101.268469	-0.017541	-0.157109	0.007645	95.436559	12.099347	5.615340	21.932601	13.891138	-22.157274	-37.641213	31.345070	5.275886	54.950511	35.886466	28.883210	5.031518	53.627334	34.500756	22.664978	-4.486461	66.227926	42.861434	27.448571	-8.873912	59.330331	37.764037
-0.375000	3.029614	-4.103828	101.268469	-0.010305	-0.153956	0.012098	95.960076	13.083454	4.851495	22.425683	15.349100	-22.082917	-37.773767	30.741526	5.091863	54.790538	35.816679	28.940490	5.032512	53.300412	34.533376	22.927304	-4.477545	65.941833	42.887673	27.589690	-8.658408	59.505796	37.862050
-0.365000	3.029614	-4.103828	101.268469	-0.002961	-0.151014	0.016687	96.670998	13.903840	4.308544	22.942324	16.816717	-22.039578	-37.939524	30.095113	4.889039	54.536238	35.711424	28.925020	5.032599	52.766657	34.439301	23.201998	-4.477273	65.413172	42.819238	27.543551	-8.444103	59.640871	37.924353
-0.355000	3.029614	-4.103828	101.268469	0.004420	-0.148404	0.021317	97.592511	14.633105	4.048752	23.429639	18.222905	-22.049554	-38.136287	29.433705	4.706183	54.263724	35.613755	28.835579	5.041060	52.212591	34.289999	23.500955	-4.480903	64.886982	42.740841	27.524015	-8.298943	59.684943	37.907833
-0.345000	3.029614	-4.103828	101.268469	0.011729	-0.146255	0.025862	98.698850	15.330768	4.087202	23.861201	19.464877	-22.127780	-38.369552	28.806257	4.591173	54.058103	35.566187	28.690054	5.054420	51.839185	34.188147	23.820051	-4.486321	64.644993	42.760446	27.738898	-8.255677	59.649106	37.814087
-0.335000	3.029614	-4.103828	101.268469	0.018823	-0.144680	0.030196	99.921627	16.023955	4.396028	24.243048	20.441606	-22.283621	-38.659849	28.264703	4.584923	54.008110	35.607066	28.507175	5.057748	51.814388	34.247794	24.143295	-4.494975	64.924060	42.977535	28.345219	-8.301392	59.591739	37.684367
-0.325000	3.029614	-4.103828	101.268469	0.025561	-0.143748	0.034224	101.166582	16.706092	4.911409	24.596170	21.096714	-22.523134	-39.040403	27.854868	4.706463	54.197543	35.766324	28.296889	5.034136	52.253825	34.574325	24.476624	-4.510858	65.847149	43.452392	29.432102	-8.389410	59.597095	37.583028
-0.315000	3.029614	-4.103828	101.268469	0.031814	-0.143467	0.037890	102.334290	17.346879	5.541358	24.923469	21.440025	-22.849510	-39.544249	27.628934	4.944221	54.684128	36.055979	28.078996	4.976480	53.220203	35.241545	24.895276	-4.538495	67.383563	44.187080	31.026559	-8.461228	59.764895	37.579081
-0.305000	3.029614	-4.103828	101.268469	0.037484	-0.143775	0.041178	103.340544	17.906948	6.175778	25.179525	21.535790	-23.261285	-40.186073	27.671084	5.256658	55.470579	36.457915	27.924829	4.893865	54.718875	36.265401	25.567810	-4.580876	69.351652	45.126418	33.110302	-8.464571	60.206192	37.728548
-0.295000	3.029614	-4.103828	101.268469	0.042497	-0.144558	0.044101	104.133560	18.351808	6.701425	25.264872	21.468319	-23.749426	-40.947873	28.109154	5.583502	56.489451	36.920005	27.987870	4.808155	56.682508	37.585720	26.725843	-4.638147	71.474031	46.181076	35.638342	-8.362347	61.026059	38.056021
-0.285000	3.029614	-4.103828	101.268469	0.046809	-0.145676	0.046690	104.703900	18.659894	7.021575	25.057299	21.303482	-24.295796	-41.777396	29.086206	5.865156	57.623714	37.371477	28.483173	4.743077	58.964747	39.074562	28.580707	-4.707711	73.475819	47.263456	38.554097	-8.136721	62.283445	38.538025
-0.275000	3.029614	-4.103828	101.268469	0.050406	-0.147004	0.048987	105.082624	18.822298	7.075046	24.470258	21.060113	-24.875040	-42.602188	30.694514	6.062663	58.760795	37.755343	29.606932	4.713262	61.367408	40.577592	31.225928	-4.785700	75.183482	48.316462	41.795374	-7.793347	63.945781	39.098638
-0.265000	3.029614	-4.103828	101.268469	0.053308	-0.148453	0.051031	105.327124	18.837840	6.846793	23.505016	20.700354	-25.458503	-43.351447	32.911371	6.168618	59.846837	38.058861	31.437029	4.719785	63.698830	41.969282	34.580132	-4.868562	76.569465	49.317575	45.286732	-7.364212	65.872944	39.627670
-0.255000	3.029614	-4.103828	101.268469	0.055555	-0.149969	0.052843	105.500941	18.710894	6.365756	22.259939	20.144446	-26.016451	-43.971935	35.584332	6.204051	60.901779	38.319963	33.880009	4.753064	65.830110	43.188540	38.404843	-4.953184	77.719841	50.258519	48.924431	-6.903234	67.849876	40.017762
-0.245000	3.029614	-4.103828	101.268469	0.057213	-0.151509	0.054421	105.658221	18.456197	5.691531	20.886250	19.306443	-26.517866	-44.430867	38.480587	6.204669	61.983741	38.603230	36.704798	4.799214	67.713362	44.234144	42.389182	-5.035482	78.753702	51.119345	52.573009	-6.472948	69.651879	40.200616
-0.235000	3.029614	-4.103828	101.268469	0.058368	-0.153016	0.055754	105.841048	18.107235	4.894287	19.517386	18.134713	-26.932201	-44.711948	41.371465	6.204562	63.127534	38.959508	39.645686	4.845811	69.354078	45.128789	46.257355	-5.109328	79.747434	51.857524	56.088650	-6.127580	71.107400	40.161970
-0.225000	3.029614	-4.103828	101.268469	0.059121	-0.154417	0.056837	106.088033	17.719421	4.032947	18.217885	16.636981	-27.237445	-44.815889	44.103694	6.224372	64.298207	39.393321	42.510190	4.885473	70.762628	45.881334	49.845559	-5.167717	80.700848	52.417966	59.360506	-5.899551	72.134900	39.931127
-0.215000	3.029614	-4.103828	101.268469	0.059586	-0.155644	0.057694	106.441072	17.360621	3.139053	16.981020	14.880765	-27.432008	-44.768055	46.621249	6.267449	65.389597	39.857900	45.226726	4.916980	71.921818	46.473434	53.115389	-5.205947	81.550988	52.754351	62.340937	-5.793504	72.751536	39.556737
-0.205000	3.029614	-4.103828	101.268469	0.059868	-0.156665	0.058376	106.935306	17.089372	2.215227	15.767102	12.976203	-27.541286	-44.623442	48.934640	6.324184	66.268537	40.281451	47.812772	4.943749	72.792257	46.875260	56.108879	-5.224416	82.217664	52.847581	65.042793	-5.788957	73.058999	39.083503
